HIERARCHY
ROOT Hips
{
 OFFSET 0.000000 0.000000 0.000000
 CHANNELS 6 Xposition Yposition Zposition Yrotation Xrotation Zrotation
 JOINT Chest
 {
  OFFSET 0.000000 9.585900 0.002600
  CHANNELS 3 Yrotation Xrotation Zrotation
  JOINT Chest2
  {
   OFFSET 0.000000 9.601200 -0.005300
   CHANNELS 3 Yrotation Xrotation Zrotation
   JOINT Chest3
   {
    OFFSET 0.000000 9.561800 0.000000
    CHANNELS 3 Yrotation Xrotation Zrotation
    JOINT Chest4
    {
     OFFSET 0.000000 9.552100 0.000000
     CHANNELS 3 Yrotation Xrotation Zrotation
     JOINT Neck
     {
      OFFSET 0.000000 14.453000 0.000000
      CHANNELS 3 Yrotation Xrotation Zrotation
      JOINT Head
      {
       OFFSET 0.000000 8.936500 -0.011300
       CHANNELS 3 Yrotation Xrotation Zrotation
       End Site
       {
        OFFSET 0.000000 17.073600 -0.006000
       }
      }
     }
     JOINT RightCollar
     {
      OFFSET -2.921100 9.558500 0.000000
      CHANNELS 3 Yrotation Xrotation Zrotation
      JOINT RightShoulder
      {
       OFFSET -13.519700 0.000000 0.000000
       CHANNELS 3 Yrotation Xrotation Zrotation
       JOINT RightElbow
       {
        OFFSET 0.000000 -29.696600 0.000000
        CHANNELS 3 Yrotation Xrotation Zrotation
        JOINT RightWrist
        {
         OFFSET 0.000000 -24.004700 0.000000
         CHANNELS 3 Yrotation Xrotation Zrotation
         End Site
         {
          OFFSET 0.000000 -17.728500 0.000000
         }
        }
       }
      }
     }
     JOINT LeftCollar
     {
      OFFSET 2.921100 9.558500 0.000000
      CHANNELS 3 Yrotation Xrotation Zrotation
      JOINT LeftShoulder
      {
       OFFSET 13.519700 0.000000 0.000000
       CHANNELS 3 Yrotation Xrotation Zrotation
       JOINT LeftElbow
       {
        OFFSET 0.000000 -29.696600 0.000000
        CHANNELS 3 Yrotation Xrotation Zrotation
        JOINT LeftWrist
        {
         OFFSET 0.000000 -24.004700 0.000000
         CHANNELS 3 Yrotation Xrotation Zrotation
         End Site
         {
          OFFSET 0.000000 -17.728500 0.000000
         }
        }
       }
      }
     }
    }
   }
  }
 }
 JOINT RightHip
 {
  OFFSET -7.771700 -0.012900 -0.001300
  CHANNELS 3 Yrotation Xrotation Zrotation
  JOINT RightKnee
  {
   OFFSET 0.000000 -40.869800 0.001200
   CHANNELS 3 Yrotation Xrotation Zrotation
   JOINT RightAnkle
   {
    OFFSET 0.000000 -39.717900 0.002100
    CHANNELS 3 Yrotation Xrotation Zrotation
    JOINT RightToe
    {
     OFFSET 0.000000 -4.965400 11.033500
     CHANNELS 3 Yrotation Xrotation Zrotation
     End Site
     {
      OFFSET 0.000000 -1.423100 5.872300
     }
    }
   }
  }
 }
 JOINT LeftHip
 {
  OFFSET 7.771700 -0.012900 -0.001300
  CHANNELS 3 Yrotation Xrotation Zrotation
  JOINT LeftKnee
  {
   OFFSET 0.000000 -40.869800 0.001200
   CHANNELS 3 Yrotation Xrotation Zrotation
   JOINT LeftAnkle
   {
    OFFSET 0.000000 -39.717900 0.002100
    CHANNELS 3 Yrotation Xrotation Zrotation
    JOINT LeftToe
    {
     OFFSET 0.000000 -4.965400 11.033500
     CHANNELS 3 Yrotation Xrotation Zrotation
     End Site
     {
      OFFSET 0.000000 -1.423100 5.872300
     }
    }
   }
  }
 }
}
MOTION
Frames: 11
Frame Time: 0.008333
-8.634847 54.453562 29.245142 175.117255 -39.782751 -5.321695 3.223090 20.969477 1.659476 0.404212 2.764976 0.192434 0.667265 4.560752 0.327094 2.858023 17.900656 1.642044 1.059502 16.558336 1.691652 1.368729 -5.080032 2.762599 -7.016249 -0.317730 -3.430006 -7.730703 -2.484791 7.404004 -108.114098 -83.433300 123.031699 -0.917278 -2.163953 2.455769 -3.689662 -0.925928 -0.005672 11.449158 -4.230839 1.827192 102.989153 -71.964638 -125.122319 -3.304362 7.066376 3.924259 -5.215609 -47.642943 6.348598 -112.254189 78.598827 -110.035661 0.632346 1.359801 1.144089 0.458033 -1.414491 0.177663 -2.330069 -37.274649 4.542272 63.785418 83.025611 54.208442 -4.826124 -11.284603 10.240004 0.148027 -0.082375 0.070008
-8.631679 54.447735 29.271137 175.019318 -39.794164 -5.266791 3.294722 21.050706 1.672839 0.415263 2.773429 0.191227 0.673131 4.528099 0.325044 2.913698 17.989897 1.670116 1.046102 16.550884 1.691730 1.348651 -5.062948 2.771121 -6.982758 -0.352015 -3.449911 -7.602511 -2.467063 7.410885 -109.027933 -83.673800 123.898865 -0.909982 -2.385042 2.258621 -3.686801 -0.964431 0.014523 11.446461 -4.207595 1.830889 103.204187 -71.932030 -125.354686 -3.283758 6.901767 4.050145 -5.110303 -47.334709 6.166942 -113.097319 78.733833 -110.861737 0.598490 1.342383 1.203279 0.413783 -1.513114 0.157848 -2.259730 -37.274668 4.556806 63.752799 83.008490 54.176285 -4.808311 -11.287967 10.224800 0.142618 -0.080938 0.073936
-8.625266 54.440987 29.295146 174.949545 -39.817160 -5.225239 3.341019 21.153332 1.686757 0.427362 2.712363 0.179658 0.680343 4.561787 0.329539 2.957343 18.088644 1.701837 1.034921 16.541173 1.686198 1.329611 -5.080847 2.764863 -6.929319 -0.391996 -3.458094 -7.494866 -2.452096 7.395735 -109.788949 -83.856703 124.629396 -0.910622 -2.530721 2.097538 -3.673448 -1.009086 0.027302 11.446262 -4.190894 1.834423 103.544403 -71.940597 -125.693159 -3.262738 6.732929 4.163849 -4.985257 -46.998128 5.921294 -113.746969 78.900127 -111.478209 0.659175 1.354298 1.332674 0.314779 -1.574922 0.079183 -2.209014 -37.265390 4.581325 63.705243 83.007846 54.124650 -4.811628 -11.282357 10.213465 0.135971 -0.074105 0.082850
-8.614524 54.429513 29.322702 174.946273 -39.804937 -5.224225 3.336682 21.184751 1.693044 0.423218 2.849372 0.204865 0.698724 4.603246 0.335489 2.982697 18.036253 1.695352 1.023402 16.530278 1.674894 1.312024 -5.100901 2.747965 -6.881199 -0.435548 -3.454763 -7.411697 -2.441725 7.359996 -110.272973 -83.980925 125.116504 -0.923211 -2.626710 1.977402 -3.662392 -1.055516 0.030907 11.449299 -4.182230 1.841487 103.969208 -71.963478 -126.106901 -3.261901 6.572654 4.264401 -4.868981 -46.680142 5.620831 -114.228332 79.106617 -111.896117 0.799754 1.352824 1.519473 0.159640 -1.559184 -0.044869 -2.220165 -37.289099 4.618492 63.978794 82.913112 54.383744 -4.913886 -11.264044 10.198116 0.121067 -0.053199 0.093130
-8.588793 54.421232 29.347405 174.985700 -39.818818 -5.302691 3.323948 21.244094 1.758184 0.424791 2.945903 0.227319 0.711374 4.634553 0.340749 3.012212 18.042808 1.704366 1.010632 16.517742 1.658277 1.294055 -5.124037 2.721615 -6.850285 -0.481726 -3.441713 -7.356089 -2.441301 7.306722 -110.432545 -84.059268 125.317637 -0.944935 -2.701083 1.885437 -3.660266 -1.102951 0.024818 11.456593 -4.181832 1.851792 104.436924 -72.004385 -126.546987 -3.272193 6.413303 4.347881 -4.782984 -46.316328 5.348438 -114.534197 79.358939 -112.100108 0.983293 1.347552 1.750442 -0.020824 -1.482388 -0.200131 -2.332875 -37.294100 4.795536 64.248814 82.886523 54.601043 -5.052074 -11.225446 10.178565 0.167572 -0.059817 0.125470
-8.559062 54.413611 29.370493 175.005567 -39.839093 -5.351501 3.313038 21.443633 1.839498 0.436189 2.888437 0.212383 0.720426 4.660630 0.345359 3.041174 18.083420 1.722068 0.999329 16.504307 1.637187 1.280301 -5.148884 2.686511 -6.828738 -0.528540 -3.424169 -7.328586 -2.453858 7.242577 -110.319612 -84.108443 125.283940 -0.972120 -2.775958 1.795629 -3.656117 -1.151806 0.012725 11.469301 -4.186661 1.860704 104.906320 -72.055460 -126.984967 -3.284929 6.254490 4.438391 -4.624253 -45.925355 5.036592 -114.673618 79.692416 -112.103470 1.091660 1.199797 2.098445 -0.142153 -1.252102 -0.437412 -2.400924 -37.290152 4.914566 64.564926 82.839727 54.892001 -5.153258 -11.203080 10.155271 0.181839 -0.059928 0.138926
-8.513529 54.393908 29.410865 174.838623 -39.743017 -5.343025 3.458471 21.464243 1.975245 0.443289 2.879172 0.207709 0.727837 4.687240 0.349980 3.063273 18.125331 1.738956 0.991420 16.492039 1.612383 1.274115 -5.171674 2.643312 -6.815449 -0.571741 -3.408691 -7.313383 -2.479068 7.177926 -110.079400 -84.146876 125.145406 -1.004147 -2.866760 1.689985 -3.643979 -1.199419 -0.002652 11.486466 -4.194009 1.867099 105.340149 -72.111968 -127.387860 -3.288006 6.093466 4.556218 -4.402507 -45.611985 4.864239 -114.709228 80.199872 -111.968824 0.982573 0.662890 2.490403 -0.146247 -0.727705 -0.689728 -2.376361 -37.408354 5.092310 64.922768 82.764298 55.245745 -5.176481 -11.235982 10.160850 0.123694 -0.018582 0.093128
-8.458330 54.369738 29.458306 174.641265 -39.589299 -5.338252 3.630855 21.395697 2.126175 0.447223 2.896482 0.210712 0.734124 4.713937 0.354960 3.080913 18.167585 1.756569 0.987311 16.482607 1.584716 1.275992 -5.189314 2.593469 -6.806631 -0.609444 -3.399893 -7.294476 -2.513187 7.120840 -109.866216 -84.191673 125.033424 -1.037027 -2.981118 1.553081 -3.628178 -1.243961 -0.017828 11.504459 -4.202817 1.870920 105.709949 -72.173515 -127.721065 -3.277181 5.925475 4.711399 -4.220758 -45.301522 4.799852 -114.601440 80.877393 -111.662202 0.727931 -0.275522 2.611436 -0.086513 0.013416 -0.714138 -2.392460 -37.598673 5.367085 65.305480 82.732396 55.586044 -5.236909 -11.231523 10.134021 0.124392 -0.009718 0.086226
-8.403050 54.347922 29.502238 174.470549 -39.440873 -5.315875 3.769356 21.332804 2.237773 0.450559 2.913504 0.214185 0.739448 4.740120 0.360677 3.095271 18.209077 1.776656 0.987391 16.477198 1.555461 1.286337 -5.199435 2.539195 -6.798531 -0.638578 -3.398650 -7.262342 -2.551387 7.075371 -109.833552 -84.254055 125.087811 -1.061792 -3.114788 1.371647 -3.611408 -1.283890 -0.028048 11.496575 -4.274676 1.832757 105.870531 -72.296481 -127.805441 -3.257132 5.749732 4.909660 -4.065524 -44.950147 4.730383 -114.135114 81.551938 -110.997253 0.559057 -1.398839 2.463715 -0.039599 0.743707 -0.545580 -2.410681 -37.783901 5.600844 65.699784 82.703231 55.936495 -5.307011 -11.212381 10.095226 0.102138 -0.012134 0.100300
-8.348129 54.336817 29.531834 174.405031 -39.370330 -5.323340 3.824372 21.352046 2.314338 0.453225 2.929675 0.217956 0.743672 4.765003 0.366776 3.105994 18.248442 1.798070 0.991779 16.476549 1.526301 1.304779 -5.200781 2.483560 -6.795917 -0.655290 -3.401762 -7.216205 -2.587731 7.043464 -110.132121 -84.342822 125.455310 -1.074761 -3.255901 1.149293 -3.597265 -1.315583 -0.030978 11.520512 -4.245996 1.846426 106.193850 -72.343382 -128.084358 -3.232182 5.574607 5.151613 -3.979555 -44.490729 4.610705 -113.362332 82.163045 -110.049020 0.534206 -2.570636 2.295134 -0.039508 1.343564 -0.403813 -2.460685 -37.878310 5.757868 66.059335 82.662733 56.268924 -5.343093 -11.197862 10.051421 0.096846 -0.016958 0.099940
-8.295310 54.332708 29.550733 174.396691 -39.346487 -5.328598 3.829938 21.419528 2.354083 0.455232 2.944687 0.221647 0.746915 4.788062 0.372700 3.113260 18.284974 1.818593 1.000920 16.480220 1.498676 1.331494 -5.194179 2.429148 -6.797924 -0.661845 -3.404297 -7.162608 -2.615990 7.024656 -110.852555 -84.460844 126.226723 -1.076444 -3.390830 0.897686 -3.589610 -1.337980 -0.027367 11.535694 -4.210717 1.857634 106.501046 -72.399804 -128.328607 -3.208933 5.407116 5.428795 -3.936444 -43.967666 4.444600 -112.791002 82.824857 -109.309614 0.486239 -3.828439 2.116736 -0.056695 1.861614 -0.306465 -2.516870 -37.918034 5.858010 66.345445 82.631676 56.532348 -5.373758 -11.180165 10.010516 0.133561 -0.026505 0.084091
